# xmcd
#
# Track frame offsets: 
#        150
#        42348
#        86328
#        111658
#        163614
#        206074
#        248941
#        252810
#        259249
#        265887
#        274445
#        275319
#        284087
#        287261
#        292490
#
# Disc length: 3918 seconds
#
# Revision: 0
# Processed by: cddbd v1.5.2PL0 Copyright (c) Steve Scherf et al.
# Submitted via: ExactAudioCopy v0.95b3
#
DISCID=f90f4c0f
DTITLE=Miles Davis  - Kind of Blue  50th Anniversary Collector's Editi
DTITLE=on - CD1
DYEAR=1900
DGENRE=
TTITLE0=So What
TTITLE1=Freddie Freeloader
TTITLE2=Blue In Green
TTITLE3=All Blues
TTITLE4=Flamenco Sketches
TTITLE5=[Miles Davis] Flamenco Sketches (alternate take)
TTITLE6=Studio Sequence 1
TTITLE7=False Start
TTITLE8=Studio Sequence 2
TTITLE9=Studio Sequence 1
TTITLE10=Studio Sequence 2
TTITLE11=Studio Sequence
TTITLE12=Studio Sequence 1
TTITLE13=Studio Sequence 2
TTITLE14=Studio Sequence
EXTD=
EXTT0=
EXTT1=
EXTT2=
EXTT3=
EXTT4=
EXTT5=
EXTT6=
EXTT7=
EXTT8=
EXTT9=
EXTT10=
EXTT11=
EXTT12=
EXTT13=
EXTT14=
PLAYORDER=
